<mxfile host="app.diagrams.net" modified="2022-07-08T07:04:42.070Z" agent="5.0 (Windows NT 10.0; Win64; x64) AppleWebKit/537.36 (KHTML, like Gecko) Chrome/103.0.0.0 Safari/537.36" etag="6Fr8G86JJHUG1wf7FHWS" version="20.0.4" type="github">
  <diagram name="Page-1" id="edf60f1a-56cd-e834-aa8a-f176f3a09ee4">
    <mxGraphModel dx="1408" dy="1648" grid="1" gridSize="10" guides="1" tooltips="1" connect="1" arrows="1" fold="1" page="1" pageScale="1" pageWidth="1600" pageHeight="900" background="#F1FAEE" math="0" shadow="0">
      <root>
        <mxCell id="0" />
        <mxCell id="1" parent="0" />
        <mxCell id="rSqbwyXY5E-z53X81SUt-7" value="" style="edgeStyle=orthogonalEdgeStyle;rounded=0;orthogonalLoop=1;jettySize=auto;html=1;fontSize=12;labelBackgroundColor=#F1FAEE;strokeColor=#457B9D;fontColor=#1D3557;" parent="1" source="60e70716793133e9-5" target="rSqbwyXY5E-z53X81SUt-6" edge="1">
          <mxGeometry relative="1" as="geometry" />
        </mxCell>
        <mxCell id="rSqbwyXY5E-z53X81SUt-25" style="edgeStyle=orthogonalEdgeStyle;rounded=0;orthogonalLoop=1;jettySize=auto;html=1;entryX=0;entryY=0.5;entryDx=0;entryDy=0;fontSize=12;labelBackgroundColor=#F1FAEE;strokeColor=#457B9D;fontColor=#1D3557;" parent="1" source="60e70716793133e9-5" target="rSqbwyXY5E-z53X81SUt-22" edge="1">
          <mxGeometry relative="1" as="geometry">
            <Array as="points">
              <mxPoint x="130" y="-513" />
              <mxPoint x="130" y="117" />
              <mxPoint x="210" y="117" />
            </Array>
          </mxGeometry>
        </mxCell>
        <mxCell id="60e70716793133e9-5" value="全部項目都正常" style="rhombus;whiteSpace=wrap;html=1;rounded=0;shadow=1;labelBackgroundColor=none;strokeWidth=1;fontFamily=Verdana;fontSize=8;align=center;fillColor=#A8DADC;strokeColor=#457B9D;fontColor=#1D3557;" parent="1" vertex="1">
          <mxGeometry x="220" y="-543" width="100" height="60" as="geometry" />
        </mxCell>
        <mxCell id="KnLaKp3uKIQBUWNTWZ8N-3" value="" style="edgeStyle=orthogonalEdgeStyle;curved=0;rounded=1;sketch=0;orthogonalLoop=1;jettySize=auto;html=1;fontColor=#1D3557;strokeColor=#457B9D;fillColor=#A8DADC;" edge="1" parent="1" source="rSqbwyXY5E-z53X81SUt-1" target="KnLaKp3uKIQBUWNTWZ8N-2">
          <mxGeometry relative="1" as="geometry" />
        </mxCell>
        <mxCell id="rSqbwyXY5E-z53X81SUt-1" value="每日進行檢核" style="ellipse;whiteSpace=wrap;html=1;fillColor=#A8DADC;strokeColor=#457B9D;fontColor=#1D3557;" parent="1" vertex="1">
          <mxGeometry x="210" y="-847" width="120" height="60" as="geometry" />
        </mxCell>
        <mxCell id="rSqbwyXY5E-z53X81SUt-10" value="" style="edgeStyle=orthogonalEdgeStyle;rounded=0;orthogonalLoop=1;jettySize=auto;html=1;fontSize=12;labelBackgroundColor=#F1FAEE;strokeColor=#457B9D;fontColor=#1D3557;" parent="1" source="rSqbwyXY5E-z53X81SUt-6" target="rSqbwyXY5E-z53X81SUt-9" edge="1">
          <mxGeometry relative="1" as="geometry" />
        </mxCell>
        <mxCell id="rSqbwyXY5E-z53X81SUt-15" value="" style="edgeStyle=orthogonalEdgeStyle;rounded=0;orthogonalLoop=1;jettySize=auto;html=1;fontSize=12;labelBackgroundColor=#F1FAEE;strokeColor=#457B9D;fontColor=#1D3557;" parent="1" source="rSqbwyXY5E-z53X81SUt-6" target="rSqbwyXY5E-z53X81SUt-14" edge="1">
          <mxGeometry relative="1" as="geometry" />
        </mxCell>
        <mxCell id="rSqbwyXY5E-z53X81SUt-6" value="項目1、2、3、8&lt;br&gt;不正常" style="rhombus;whiteSpace=wrap;html=1;rounded=0;shadow=1;labelBackgroundColor=none;strokeWidth=1;fontFamily=Verdana;fontSize=8;align=center;fillColor=#A8DADC;strokeColor=#457B9D;fontColor=#1D3557;" parent="1" vertex="1">
          <mxGeometry x="200" y="-403" width="140" height="60" as="geometry" />
        </mxCell>
        <mxCell id="rSqbwyXY5E-z53X81SUt-27" value="" style="edgeStyle=orthogonalEdgeStyle;rounded=0;orthogonalLoop=1;jettySize=auto;html=1;fontSize=12;labelBackgroundColor=#F1FAEE;strokeColor=#457B9D;fontColor=#1D3557;" parent="1" source="rSqbwyXY5E-z53X81SUt-9" target="rSqbwyXY5E-z53X81SUt-26" edge="1">
          <mxGeometry relative="1" as="geometry" />
        </mxCell>
        <mxCell id="rSqbwyXY5E-z53X81SUt-9" value="&lt;div&gt;&lt;span style=&quot;font-size: 8px;&quot;&gt;時間：13:00&lt;/span&gt;&lt;/div&gt;&lt;div&gt;&lt;span style=&quot;font-size: 8px;&quot;&gt;動作：跟IT確認當天是否可修復&lt;/span&gt;&lt;/div&gt;" style="whiteSpace=wrap;html=1;fontSize=8;fontFamily=Verdana;rounded=0;shadow=1;labelBackgroundColor=none;strokeWidth=1;align=left;fillColor=#A8DADC;strokeColor=#457B9D;fontColor=#1D3557;" parent="1" vertex="1">
          <mxGeometry x="410" y="-403" width="120" height="60" as="geometry" />
        </mxCell>
        <mxCell id="rSqbwyXY5E-z53X81SUt-13" value="Yes" style="text;html=1;resizable=0;autosize=1;align=center;verticalAlign=middle;points=[];fillColor=none;strokeColor=none;rounded=0;fontSize=12;fontColor=#1D3557;" parent="1" vertex="1">
          <mxGeometry x="330" y="-403" width="40" height="30" as="geometry" />
        </mxCell>
        <mxCell id="rSqbwyXY5E-z53X81SUt-17" value="" style="edgeStyle=orthogonalEdgeStyle;rounded=0;orthogonalLoop=1;jettySize=auto;html=1;fontSize=12;labelBackgroundColor=#F1FAEE;strokeColor=#457B9D;fontColor=#1D3557;" parent="1" source="rSqbwyXY5E-z53X81SUt-14" target="rSqbwyXY5E-z53X81SUt-16" edge="1">
          <mxGeometry relative="1" as="geometry" />
        </mxCell>
        <mxCell id="rSqbwyXY5E-z53X81SUt-52" value="" style="edgeStyle=orthogonalEdgeStyle;rounded=0;orthogonalLoop=1;jettySize=auto;html=1;fontSize=12;labelBackgroundColor=#F1FAEE;strokeColor=#457B9D;fontColor=#1D3557;" parent="1" source="rSqbwyXY5E-z53X81SUt-14" target="rSqbwyXY5E-z53X81SUt-51" edge="1">
          <mxGeometry relative="1" as="geometry" />
        </mxCell>
        <mxCell id="rSqbwyXY5E-z53X81SUt-14" value="項目4不正常" style="rhombus;whiteSpace=wrap;html=1;rounded=0;shadow=1;labelBackgroundColor=none;strokeWidth=1;fontFamily=Verdana;fontSize=8;align=center;fillColor=#A8DADC;strokeColor=#457B9D;fontColor=#1D3557;" parent="1" vertex="1">
          <mxGeometry x="220" y="-263" width="100" height="60" as="geometry" />
        </mxCell>
        <mxCell id="rSqbwyXY5E-z53X81SUt-20" value="" style="edgeStyle=orthogonalEdgeStyle;rounded=0;orthogonalLoop=1;jettySize=auto;html=1;fontSize=12;labelBackgroundColor=#F1FAEE;strokeColor=#457B9D;fontColor=#1D3557;" parent="1" source="rSqbwyXY5E-z53X81SUt-16" target="rSqbwyXY5E-z53X81SUt-19" edge="1">
          <mxGeometry relative="1" as="geometry" />
        </mxCell>
        <mxCell id="rSqbwyXY5E-z53X81SUt-48" style="edgeStyle=orthogonalEdgeStyle;rounded=0;orthogonalLoop=1;jettySize=auto;html=1;exitX=0.5;exitY=0;exitDx=0;exitDy=0;entryX=0.5;entryY=1;entryDx=0;entryDy=0;fontSize=12;labelBackgroundColor=#F1FAEE;strokeColor=#457B9D;fontColor=#1D3557;" parent="1" source="rSqbwyXY5E-z53X81SUt-16" target="rSqbwyXY5E-z53X81SUt-9" edge="1">
          <mxGeometry relative="1" as="geometry" />
        </mxCell>
        <mxCell id="rSqbwyXY5E-z53X81SUt-16" value="確認是否合理" style="rhombus;whiteSpace=wrap;html=1;rounded=0;shadow=1;labelBackgroundColor=none;strokeWidth=1;fontFamily=Verdana;fontSize=8;align=center;fillColor=#A8DADC;strokeColor=#457B9D;fontColor=#1D3557;" parent="1" vertex="1">
          <mxGeometry x="420" y="-263" width="100" height="60" as="geometry" />
        </mxCell>
        <mxCell id="rSqbwyXY5E-z53X81SUt-18" value="Yes" style="text;html=1;resizable=0;autosize=1;align=center;verticalAlign=middle;points=[];fillColor=none;strokeColor=none;rounded=0;fontSize=12;fontColor=#1D3557;" parent="1" vertex="1">
          <mxGeometry x="320" y="-263" width="40" height="30" as="geometry" />
        </mxCell>
        <mxCell id="rSqbwyXY5E-z53X81SUt-47" style="edgeStyle=orthogonalEdgeStyle;rounded=0;orthogonalLoop=1;jettySize=auto;html=1;entryX=1;entryY=0.5;entryDx=0;entryDy=0;fontSize=12;labelBackgroundColor=#F1FAEE;strokeColor=#457B9D;fontColor=#1D3557;" parent="1" source="rSqbwyXY5E-z53X81SUt-19" target="60e70716793133e9-5" edge="1">
          <mxGeometry relative="1" as="geometry">
            <Array as="points">
              <mxPoint x="820" y="-233" />
              <mxPoint x="820" y="-513" />
            </Array>
          </mxGeometry>
        </mxCell>
        <mxCell id="rSqbwyXY5E-z53X81SUt-19" value="夜間自動化批次參數重設、重啟排程" style="whiteSpace=wrap;html=1;fontSize=8;fontFamily=Verdana;rounded=0;shadow=1;labelBackgroundColor=none;strokeWidth=1;fillColor=#A8DADC;strokeColor=#457B9D;fontColor=#1D3557;" parent="1" vertex="1">
          <mxGeometry x="618" y="-263" width="120" height="60" as="geometry" />
        </mxCell>
        <mxCell id="rSqbwyXY5E-z53X81SUt-21" value="Yes" style="text;html=1;resizable=0;autosize=1;align=center;verticalAlign=middle;points=[];fillColor=none;strokeColor=none;rounded=0;fontSize=12;fontColor=#1D3557;" parent="1" vertex="1">
          <mxGeometry x="520" y="-223" width="40" height="30" as="geometry" />
        </mxCell>
        <mxCell id="rSqbwyXY5E-z53X81SUt-22" value="名單正常發送" style="ellipse;whiteSpace=wrap;html=1;fontSize=8;fontFamily=Verdana;rounded=0;shadow=1;labelBackgroundColor=none;strokeWidth=1;fillColor=#A8DADC;strokeColor=#457B9D;fontColor=#1D3557;" parent="1" vertex="1">
          <mxGeometry x="210" y="87" width="120" height="60" as="geometry" />
        </mxCell>
        <mxCell id="rSqbwyXY5E-z53X81SUt-24" value="Yes" style="text;html=1;resizable=0;autosize=1;align=center;verticalAlign=middle;points=[];fillColor=none;strokeColor=none;rounded=0;fontSize=12;fontColor=#1D3557;" parent="1" vertex="1">
          <mxGeometry x="180" y="-543" width="40" height="30" as="geometry" />
        </mxCell>
        <mxCell id="rSqbwyXY5E-z53X81SUt-29" value="" style="edgeStyle=orthogonalEdgeStyle;rounded=0;orthogonalLoop=1;jettySize=auto;html=1;fontSize=12;labelBackgroundColor=#F1FAEE;strokeColor=#457B9D;fontColor=#1D3557;" parent="1" source="rSqbwyXY5E-z53X81SUt-26" target="rSqbwyXY5E-z53X81SUt-28" edge="1">
          <mxGeometry relative="1" as="geometry" />
        </mxCell>
        <mxCell id="rSqbwyXY5E-z53X81SUt-26" value="&lt;div&gt;&lt;span style=&quot;font-size: 8px;&quot;&gt;時間：14:30&lt;/span&gt;&lt;/div&gt;&lt;div&gt;&lt;span style=&quot;font-size: 8px;&quot;&gt;動作：&lt;/span&gt;&lt;/div&gt;&lt;div&gt;&lt;span style=&quot;font-size: 8px;&quot;&gt;1.統計當天夜間自動化及白天手動之名單&lt;/span&gt;&lt;/div&gt;&lt;div&gt;&lt;span style=&quot;font-size: 8px;&quot;&gt;2.擬定通知業管之信件&lt;/span&gt;&lt;/div&gt;" style="whiteSpace=wrap;html=1;fontSize=8;fontFamily=Verdana;rounded=0;shadow=1;labelBackgroundColor=none;strokeWidth=1;align=left;fillColor=#A8DADC;strokeColor=#457B9D;fontColor=#1D3557;" parent="1" vertex="1">
          <mxGeometry x="610" y="-413" width="160" height="80" as="geometry" />
        </mxCell>
        <mxCell id="rSqbwyXY5E-z53X81SUt-37" value="" style="edgeStyle=orthogonalEdgeStyle;rounded=0;orthogonalLoop=1;jettySize=auto;html=1;fontSize=12;labelBackgroundColor=#F1FAEE;strokeColor=#457B9D;fontColor=#1D3557;" parent="1" source="rSqbwyXY5E-z53X81SUt-28" target="rSqbwyXY5E-z53X81SUt-36" edge="1">
          <mxGeometry relative="1" as="geometry" />
        </mxCell>
        <mxCell id="rSqbwyXY5E-z53X81SUt-28" value="&lt;div&gt;&lt;span style=&quot;font-size: 8px;&quot;&gt;時間：15:00&lt;/span&gt;&lt;/div&gt;&lt;div&gt;&lt;span style=&quot;font-size: 8px;&quot;&gt;動作：發送信件通知業管，告知今日有可能無法正常發送&lt;/span&gt;&lt;/div&gt;" style="whiteSpace=wrap;html=1;fontSize=8;fontFamily=Verdana;align=left;rounded=0;shadow=1;labelBackgroundColor=none;strokeWidth=1;fillColor=#A8DADC;strokeColor=#457B9D;fontColor=#1D3557;" parent="1" vertex="1">
          <mxGeometry x="870" y="-403" width="120" height="60" as="geometry" />
        </mxCell>
        <mxCell id="rSqbwyXY5E-z53X81SUt-43" value="" style="edgeStyle=orthogonalEdgeStyle;rounded=0;orthogonalLoop=1;jettySize=auto;html=1;fontSize=12;labelBackgroundColor=#F1FAEE;strokeColor=#457B9D;fontColor=#1D3557;" parent="1" source="rSqbwyXY5E-z53X81SUt-30" target="rSqbwyXY5E-z53X81SUt-42" edge="1">
          <mxGeometry relative="1" as="geometry" />
        </mxCell>
        <mxCell id="rSqbwyXY5E-z53X81SUt-30" value="&lt;div&gt;&lt;span style=&quot;font-size: 8px;&quot;&gt;時間：17:00&lt;/span&gt;&lt;/div&gt;&lt;div&gt;&lt;span style=&quot;font-size: 8px;&quot;&gt;動作：起JIRA單據，通知業管，告知今日系統問題無法正常發送&lt;/span&gt;&lt;/div&gt;" style="whiteSpace=wrap;html=1;fontSize=8;fontFamily=Verdana;align=left;rounded=0;shadow=1;labelBackgroundColor=none;strokeWidth=1;fillColor=#A8DADC;strokeColor=#457B9D;fontColor=#1D3557;" parent="1" vertex="1">
          <mxGeometry x="1220" y="-416" width="120" height="87" as="geometry" />
        </mxCell>
        <mxCell id="rSqbwyXY5E-z53X81SUt-40" style="edgeStyle=orthogonalEdgeStyle;rounded=0;orthogonalLoop=1;jettySize=auto;html=1;exitX=0.5;exitY=0;exitDx=0;exitDy=0;entryX=1;entryY=0.5;entryDx=0;entryDy=0;fontSize=12;labelBackgroundColor=#F1FAEE;strokeColor=#457B9D;fontColor=#1D3557;" parent="1" source="rSqbwyXY5E-z53X81SUt-36" target="60e70716793133e9-5" edge="1">
          <mxGeometry relative="1" as="geometry" />
        </mxCell>
        <mxCell id="rSqbwyXY5E-z53X81SUt-41" style="edgeStyle=orthogonalEdgeStyle;rounded=0;orthogonalLoop=1;jettySize=auto;html=1;exitX=1;exitY=0.5;exitDx=0;exitDy=0;fontSize=12;labelBackgroundColor=#F1FAEE;strokeColor=#457B9D;fontColor=#1D3557;" parent="1" source="rSqbwyXY5E-z53X81SUt-36" target="rSqbwyXY5E-z53X81SUt-30" edge="1">
          <mxGeometry relative="1" as="geometry" />
        </mxCell>
        <mxCell id="rSqbwyXY5E-z53X81SUt-36" value="17:00確認是否可正常發送" style="rhombus;whiteSpace=wrap;html=1;fontSize=8;fontFamily=Verdana;align=center;rounded=0;shadow=1;labelBackgroundColor=none;strokeWidth=1;fillColor=#A8DADC;strokeColor=#457B9D;fontColor=#1D3557;" parent="1" vertex="1">
          <mxGeometry x="1065" y="-413" width="105" height="80" as="geometry" />
        </mxCell>
        <mxCell id="rSqbwyXY5E-z53X81SUt-39" value="Yes" style="text;html=1;resizable=0;autosize=1;align=center;verticalAlign=middle;points=[];fillColor=none;strokeColor=none;rounded=0;fontSize=12;fontColor=#1D3557;" parent="1" vertex="1">
          <mxGeometry x="1120" y="-447" width="40" height="30" as="geometry" />
        </mxCell>
        <mxCell id="rSqbwyXY5E-z53X81SUt-44" style="edgeStyle=orthogonalEdgeStyle;rounded=0;orthogonalLoop=1;jettySize=auto;html=1;entryX=1;entryY=0.5;entryDx=0;entryDy=0;fontSize=12;labelBackgroundColor=#F1FAEE;strokeColor=#457B9D;fontColor=#1D3557;" parent="1" source="rSqbwyXY5E-z53X81SUt-42" target="60e70716793133e9-5" edge="1">
          <mxGeometry relative="1" as="geometry">
            <Array as="points">
              <mxPoint x="1452" y="-513" />
            </Array>
          </mxGeometry>
        </mxCell>
        <mxCell id="rSqbwyXY5E-z53X81SUt-42" value="延後或取消" style="whiteSpace=wrap;html=1;fontSize=8;fontFamily=Verdana;align=center;rounded=0;shadow=1;labelBackgroundColor=none;strokeWidth=1;fillColor=#A8DADC;strokeColor=#457B9D;fontColor=#1D3557;" parent="1" vertex="1">
          <mxGeometry x="1392" y="-403" width="120" height="60" as="geometry" />
        </mxCell>
        <mxCell id="rSqbwyXY5E-z53X81SUt-45" value="No" style="text;html=1;resizable=0;autosize=1;align=center;verticalAlign=middle;points=[];fillColor=none;strokeColor=none;rounded=0;fontSize=12;fontColor=#1D3557;" parent="1" vertex="1">
          <mxGeometry x="280" y="-483" width="40" height="30" as="geometry" />
        </mxCell>
        <mxCell id="rSqbwyXY5E-z53X81SUt-46" value="No" style="text;html=1;resizable=0;autosize=1;align=center;verticalAlign=middle;points=[];fillColor=none;strokeColor=none;rounded=0;fontSize=12;fontColor=#1D3557;" parent="1" vertex="1">
          <mxGeometry x="1144" y="-363" width="40" height="30" as="geometry" />
        </mxCell>
        <mxCell id="rSqbwyXY5E-z53X81SUt-49" value="No" style="text;html=1;resizable=0;autosize=1;align=center;verticalAlign=middle;points=[];fillColor=none;strokeColor=none;rounded=0;fontSize=12;fontColor=#1D3557;" parent="1" vertex="1">
          <mxGeometry x="480" y="-293" width="40" height="30" as="geometry" />
        </mxCell>
        <mxCell id="rSqbwyXY5E-z53X81SUt-50" value="No" style="text;html=1;resizable=0;autosize=1;align=center;verticalAlign=middle;points=[];fillColor=none;strokeColor=none;rounded=0;fontSize=12;fontColor=#1D3557;" parent="1" vertex="1">
          <mxGeometry x="290" y="-343" width="40" height="30" as="geometry" />
        </mxCell>
        <mxCell id="rSqbwyXY5E-z53X81SUt-54" value="" style="edgeStyle=orthogonalEdgeStyle;rounded=0;orthogonalLoop=1;jettySize=auto;html=1;fontSize=12;entryX=0;entryY=0.5;entryDx=0;entryDy=0;labelBackgroundColor=#F1FAEE;strokeColor=#457B9D;fontColor=#1D3557;" parent="1" source="rSqbwyXY5E-z53X81SUt-51" target="rSqbwyXY5E-z53X81SUt-61" edge="1">
          <mxGeometry relative="1" as="geometry">
            <mxPoint x="420" y="-93" as="targetPoint" />
          </mxGeometry>
        </mxCell>
        <mxCell id="KnLaKp3uKIQBUWNTWZ8N-1" style="edgeStyle=orthogonalEdgeStyle;curved=0;rounded=1;sketch=0;orthogonalLoop=1;jettySize=auto;html=1;entryX=0;entryY=0.5;entryDx=0;entryDy=0;fontColor=#1D3557;strokeColor=#457B9D;fillColor=#A8DADC;" edge="1" parent="1" source="rSqbwyXY5E-z53X81SUt-51" target="rSqbwyXY5E-z53X81SUt-65">
          <mxGeometry relative="1" as="geometry">
            <Array as="points">
              <mxPoint x="270" y="41" />
              <mxPoint x="465" y="41" />
            </Array>
          </mxGeometry>
        </mxCell>
        <mxCell id="rSqbwyXY5E-z53X81SUt-51" value="項目6不正常" style="rhombus;whiteSpace=wrap;html=1;rounded=0;shadow=1;labelBackgroundColor=none;strokeWidth=1;fontFamily=Verdana;fontSize=8;align=center;fillColor=#A8DADC;strokeColor=#457B9D;fontColor=#1D3557;" parent="1" vertex="1">
          <mxGeometry x="220" y="-123" width="100" height="60" as="geometry" />
        </mxCell>
        <mxCell id="rSqbwyXY5E-z53X81SUt-55" value="No" style="text;html=1;resizable=0;autosize=1;align=center;verticalAlign=middle;points=[];fillColor=none;strokeColor=none;rounded=0;fontSize=12;fontColor=#1D3557;" parent="1" vertex="1">
          <mxGeometry x="290" y="-203" width="40" height="30" as="geometry" />
        </mxCell>
        <mxCell id="rSqbwyXY5E-z53X81SUt-56" value="Yes" style="text;html=1;resizable=0;autosize=1;align=center;verticalAlign=middle;points=[];fillColor=none;strokeColor=none;rounded=0;fontSize=12;fontColor=#1D3557;" parent="1" vertex="1">
          <mxGeometry x="310" y="-133" width="40" height="30" as="geometry" />
        </mxCell>
        <mxCell id="rSqbwyXY5E-z53X81SUt-64" style="edgeStyle=orthogonalEdgeStyle;rounded=0;orthogonalLoop=1;jettySize=auto;html=1;exitX=1;exitY=0.5;exitDx=0;exitDy=0;entryX=1;entryY=0.5;entryDx=0;entryDy=0;fontSize=12;labelBackgroundColor=#F1FAEE;strokeColor=#457B9D;fontColor=#1D3557;" parent="1" source="rSqbwyXY5E-z53X81SUt-61" target="60e70716793133e9-5" edge="1">
          <mxGeometry relative="1" as="geometry">
            <Array as="points">
              <mxPoint x="820" y="-93" />
              <mxPoint x="820" y="-513" />
            </Array>
          </mxGeometry>
        </mxCell>
        <mxCell id="rSqbwyXY5E-z53X81SUt-61" value="母體重傳" style="whiteSpace=wrap;html=1;fontSize=8;fontFamily=Verdana;rounded=0;shadow=1;labelBackgroundColor=none;strokeWidth=1;fillColor=#A8DADC;strokeColor=#457B9D;fontColor=#1D3557;" parent="1" vertex="1">
          <mxGeometry x="610" y="-123" width="120" height="60" as="geometry" />
        </mxCell>
        <mxCell id="rSqbwyXY5E-z53X81SUt-67" style="edgeStyle=orthogonalEdgeStyle;rounded=0;orthogonalLoop=1;jettySize=auto;html=1;exitX=1;exitY=0.5;exitDx=0;exitDy=0;fontSize=12;labelBackgroundColor=#F1FAEE;strokeColor=#457B9D;fontColor=#1D3557;" parent="1" source="rSqbwyXY5E-z53X81SUt-65" edge="1">
          <mxGeometry relative="1" as="geometry">
            <mxPoint x="320" y="-513" as="targetPoint" />
            <Array as="points">
              <mxPoint x="820" y="47" />
              <mxPoint x="820" y="-513" />
            </Array>
          </mxGeometry>
        </mxCell>
        <mxCell id="rSqbwyXY5E-z53X81SUt-65" value="1.檢核項目7&lt;br&gt;母體過期&lt;br&gt;名單下架&lt;br&gt;2.項目5未更新完成，跟IT確認，仍可發送" style="whiteSpace=wrap;html=1;fontSize=8;fontFamily=Verdana;rounded=0;shadow=1;labelBackgroundColor=none;strokeWidth=1;fillColor=#A8DADC;strokeColor=#457B9D;fontColor=#1D3557;" parent="1" vertex="1">
          <mxGeometry x="609" y="4" width="120" height="73" as="geometry" />
        </mxCell>
        <mxCell id="rSqbwyXY5E-z53X81SUt-68" value="No" style="text;html=1;resizable=0;autosize=1;align=center;verticalAlign=middle;points=[];fillColor=none;strokeColor=none;rounded=0;fontSize=12;fontColor=#1D3557;" parent="1" vertex="1">
          <mxGeometry x="280" y="-53" width="40" height="30" as="geometry" />
        </mxCell>
        <mxCell id="KnLaKp3uKIQBUWNTWZ8N-4" style="edgeStyle=orthogonalEdgeStyle;curved=0;rounded=1;sketch=0;orthogonalLoop=1;jettySize=auto;html=1;entryX=0.5;entryY=0;entryDx=0;entryDy=0;fontColor=#1D3557;strokeColor=#457B9D;fillColor=#A8DADC;" edge="1" parent="1" source="KnLaKp3uKIQBUWNTWZ8N-2" target="60e70716793133e9-5">
          <mxGeometry relative="1" as="geometry" />
        </mxCell>
        <mxCell id="KnLaKp3uKIQBUWNTWZ8N-2" value="&lt;span style=&quot;background-color: initial;&quot;&gt;1.UNICA環境是否能正常登入&lt;/span&gt;&lt;br&gt;&lt;div style=&quot;&quot;&gt;2.EBM T-2資料庫更新完成&lt;/div&gt;&lt;div style=&quot;&quot;&gt;3.UNICA夜間批次是否完成&lt;/div&gt;&lt;div style=&quot;&quot;&gt;4.UNICA 排除條件檢核&lt;/div&gt;&lt;div style=&quot;&quot;&gt;5.每週一資料源更新完成&lt;/div&gt;&lt;div style=&quot;&quot;&gt;6.Monitoring stopped狀態確認&lt;/div&gt;&lt;div style=&quot;&quot;&gt;7.Inbound 通路是否正常&lt;/div&gt;&lt;div style=&quot;&quot;&gt;8.SAS或已知之通路系統是否異常&lt;/div&gt;" style="whiteSpace=wrap;html=1;fillColor=#A8DADC;strokeColor=#457B9D;fontColor=#1D3557;align=left;" vertex="1" parent="1">
          <mxGeometry x="175" y="-740" width="190" height="130" as="geometry" />
        </mxCell>
      </root>
    </mxGraphModel>
  </diagram>
</mxfile>
